# xmcd CD database file
#
# Track frame offsets:
#	150
#	16363
#	29318
#	42581
#	62738
#	80412
#	93899
#	116434
#	131052
#	148342
#	163414
#	180242
#	197231
#	211851
#	228409
#
# Disc length: 3274 seconds
#
# Revision: 0
# Processed by: cddbd v1.5.1PL0 Copyright (c) Steve Scherf et al.
# Submitted via: CDex 1.51
#
DISCID=d10cc80f
DTITLE=Festivity - Viento Y Madera Instrumental
DYEAR=2002
DGENRE=Salsa
TTITLE0=Free Like The Air
TTITLE1=Wankara
TTITLE2=Jaina
TTITLE3=Falls Thursday
TTITLE4=Imillak
TTITLE5=Feed The Roost
TTITLE6=Lineas De Nasca
TTITLE7=La Biquina
TTITLE8=Patus Carnavalitus
TTITLE9=Pituco
TTITLE10=Zorritos
TTITLE11=Yamor
TTITLE12=Carnavalito Humahuaquno
TTITLE13=Boquita Pintada
TTITLE14=San Juanito
EXTD=YEAR: 2002
EXTT0=
EXTT1=
EXTT2=
EXTT3=
EXTT4=
EXTT5=
EXTT6=
EXTT7=
EXTT8=
EXTT9=
EXTT10=
EXTT11=
EXTT12=
EXTT13=
EXTT14=
PLAYORDER=
